<?xml version="1.0" encoding="UTF-8" standalone="no"?>
<!-- Generator: Gravit.io -->
<svg xmlns="http://www.w3.org/2000/svg" xmlns:xlink="http://www.w3.org/1999/xlink" style="isolation:isolate" viewBox="0 0 2048 2048" width="2048" height="2048"><defs><clipPath id="_clipPath_ocVvBwemCLHFIumN7tn4KCC2vGHh4s1V"><rect width="2048" height="2048"/></clipPath></defs><g clip-path="url(#_clipPath_ocVvBwemCLHFIumN7tn4KCC2vGHh4s1V)"><rect width="2048" height="2048" style="fill:rgb(74,74,74)"/><circle vector-effect="non-scaling-stroke" cx="1024" cy="1024" r="734" fill="rgb(255,255,255)"/><mask id="_mask_tpkP7EqFt0Oj0HvtNWaNStk3YmN9disO" x="-200%" y="-200%" width="400%" height="400%"><rect x="-200%" y="-200%" width="400%" height="400%" style="fill:white;"/><path d=" M 157.103 670.667 C 112.552 779.709 88 899.01 88 1024 L 88 1024 C 88 1540.592 507.408 1960 1024 1960 C 1540.592 1960 1960 1540.592 1960 1024 C 1960 507.408 1540.592 88 1024 88 C 899.01 88 779.709 112.552 670.667 157.103 C 719.123 219.165 748 297.237 748 382 C 748 404.21 746.017 425.961 742.201 447.079 C 827.293 405.404 922.935 382 1024 382 C 1378.329 382 1666 669.671 1666 1024 C 1666 1378.329 1378.329 1666 1024 1666 C 669.671 1666 382 1378.329 382 1024 L 382 1024 C 382 922.935 405.404 827.293 447.079 742.201 C 425.961 746.017 404.21 748 382 748 C 297.237 748 219.165 719.123 157.103 670.667 Z  M 100 382 C 100 226.36 226.36 100 382 100 C 537.64 100 664 226.36 664 382 C 664 537.64 537.64 664 382 664 C 226.36 664 100 537.64 100 382 Z " fill-rule="evenodd" fill="black" stroke="none"/></mask><path d=" M 157.103 670.667 C 112.552 779.709 88 899.01 88 1024 L 88 1024 C 88 1540.592 507.408 1960 1024 1960 C 1540.592 1960 1960 1540.592 1960 1024 C 1960 507.408 1540.592 88 1024 88 C 899.01 88 779.709 112.552 670.667 157.103 C 719.123 219.165 748 297.237 748 382 C 748 404.21 746.017 425.961 742.201 447.079 C 827.293 405.404 922.935 382 1024 382 C 1378.329 382 1666 669.671 1666 1024 C 1666 1378.329 1378.329 1666 1024 1666 C 669.671 1666 382 1378.329 382 1024 L 382 1024 C 382 922.935 405.404 827.293 447.079 742.201 C 425.961 746.017 404.21 748 382 748 C 297.237 748 219.165 719.123 157.103 670.667 Z  M 100 382 C 100 226.36 226.36 100 382 100 C 537.64 100 664 226.36 664 382 C 664 537.64 537.64 664 382 664 C 226.36 664 100 537.64 100 382 Z " fill-rule="evenodd" fill="rgb(235,235,235)" mask="url(#_mask_tpkP7EqFt0Oj0HvtNWaNStk3YmN9disO)" vector-effect="non-scaling-stroke" stroke-width="100" stroke="rgb(255,255,255)" stroke-linejoin="miter" stroke-linecap="round" stroke-miterlimit="3"/><path d=" M 1034.496 624.117 L 1165.06 720.45 L 1314.181 748.662 L 1338.387 909.102 L 1423.883 1034.496 L 1327.55 1165.06 L 1299.338 1314.181 L 1138.898 1338.387 L 1013.504 1423.883 L 882.94 1327.55 L 733.819 1299.338 L 709.613 1138.898 L 624.117 1013.504 L 720.45 882.94 L 748.662 733.819 L 909.102 709.613 L 1034.496 624.117 Z " fill="rgb(100,138,227)"/></g></svg>