<?xml version="2.0" encoding="UTF-8" standalone="no"?>
<svg xmlns="http://www.w3.org/2000/svg" xmlns:xlink="http://www.w3.org/1999/xlink" style="isolation:isolate" viewBox="0 0 2048 2048" width="2048" height="2048"><path d=" M 624.541 107.109 C 559.884 50.007 474.959 15.338 382 15.338 C 179.634 15.338 15.338 179.634 15.338 382 C 15.338 474.959 50.007 559.884 107.109 624.541 C 53.653 746.912 24 882.02 24 1024 C 24 1575.915 472.085 2024 1024 2024 C 1575.915 2024 2024 1575.915 2024 1024 C 2024 472.085 1575.915 24 1024 24 C 882.02 24 746.912 53.653 624.541 107.109 Z " fill="rgb(235,235,235)"/><path d=" M 157.103 670.667 C 112.552 779.709 88 899.01 88 1024 L 88 1024 C 88 1540.592 507.408 1960 1024 1960 C 1540.592 1960 1960 1540.592 1960 1024 C 1960 507.408 1540.592 88 1024 88 C 899.01 88 779.709 112.552 670.667 157.103 C 719.123 219.165 748 297.237 748 382 C 748 404.21 746.017 425.961 742.201 447.079 C 827.293 405.404 922.935 382 1024 382 C 1378.329 382 1666 669.671 1666 1024 C 1666 1378.329 1378.329 1666 1024 1666 C 669.671 1666 382 1378.329 382 1024 L 382 1024 C 382 922.935 405.404 827.293 447.079 742.201 C 425.961 746.017 404.21 748 382 748 C 297.237 748 219.165 719.123 157.103 670.667 Z  M 100 382 C 100 226.36 226.36 100 382 100 C 537.64 100 664 226.36 664 382 C 664 537.64 537.64 664 382 664 C 226.36 664 100 537.64 100 382 Z " fill-rule="evenodd" fill="rgb(170,167,172)"/><path d=" M 1034.496 624.117 L 1165.06 720.45 L 1314.181 748.662 L 1338.387 909.102 L 1423.883 1034.496 L 1327.55 1165.06 L 1299.338 1314.181 L 1138.898 1338.387 L 1013.504 1423.883 L 882.94 1327.55 L 733.819 1299.338 L 709.613 1138.898 L 624.117 1013.504 L 720.45 882.94 L 748.662 733.819 L 909.102 709.613 L 1034.496 624.117 Z " fill="rgb(100,138,227)"/></svg>
